<mxfile host="app.diagrams.net" modified="2024-04-26T21:34:47.082Z" agent="Mozilla/5.0 (Windows NT 10.0; Win64; x64; rv:125.0) Gecko/20100101 Firefox/125.0" etag="ntXsion05TJ5p46xvVn7" version="24.3.0" type="github">
  <diagram name="Página-1" id="zTf7HfAnndi5Zs6NYqLL">
    <mxGraphModel dx="2693" dy="846" grid="1" gridSize="10" guides="1" tooltips="1" connect="1" arrows="1" fold="1" page="1" pageScale="1" pageWidth="1100" pageHeight="850" math="0" shadow="0">
      <root>
        <mxCell id="0" />
        <mxCell id="1" parent="0" />
        <mxCell id="Dm5T4hRd_MwPpTTTJA_t-1" value="&lt;font style=&quot;font-size: 15px;&quot;&gt;Estado de cuenta&lt;/font&gt;" style="rounded=0;whiteSpace=wrap;html=1;" vertex="1" parent="1">
          <mxGeometry x="80" y="210" width="120" height="60" as="geometry" />
        </mxCell>
        <mxCell id="Dm5T4hRd_MwPpTTTJA_t-2" value="&lt;font style=&quot;font-size: 15px;&quot;&gt;Antecedentes&lt;/font&gt;" style="rounded=0;whiteSpace=wrap;html=1;" vertex="1" parent="1">
          <mxGeometry x="330" y="210" width="120" height="60" as="geometry" />
        </mxCell>
        <mxCell id="Dm5T4hRd_MwPpTTTJA_t-3" value="" style="edgeStyle=segmentEdgeStyle;endArrow=classic;html=1;curved=0;rounded=0;endSize=8;startSize=8;exitX=1;exitY=0.5;exitDx=0;exitDy=0;" edge="1" parent="1" source="Dm5T4hRd_MwPpTTTJA_t-1">
          <mxGeometry width="50" height="50" relative="1" as="geometry">
            <mxPoint x="570" y="360" as="sourcePoint" />
            <mxPoint x="220" y="320" as="targetPoint" />
            <Array as="points">
              <mxPoint x="220" y="240" />
            </Array>
          </mxGeometry>
        </mxCell>
        <mxCell id="Dm5T4hRd_MwPpTTTJA_t-4" value="" style="edgeStyle=segmentEdgeStyle;endArrow=classic;html=1;curved=0;rounded=0;endSize=8;startSize=8;exitX=0;exitY=0.5;exitDx=0;exitDy=0;" edge="1" parent="1" source="Dm5T4hRd_MwPpTTTJA_t-2">
          <mxGeometry width="50" height="50" relative="1" as="geometry">
            <mxPoint x="650" y="290" as="sourcePoint" />
            <mxPoint x="310" y="320" as="targetPoint" />
            <Array as="points">
              <mxPoint x="310" y="240" />
              <mxPoint x="310" y="320" />
            </Array>
          </mxGeometry>
        </mxCell>
        <mxCell id="Dm5T4hRd_MwPpTTTJA_t-6" value="E/C" style="rhombus;whiteSpace=wrap;html=1;" vertex="1" parent="1">
          <mxGeometry x="190" y="320" width="60" height="60" as="geometry" />
        </mxCell>
        <mxCell id="Dm5T4hRd_MwPpTTTJA_t-7" value="A/C" style="rhombus;whiteSpace=wrap;html=1;" vertex="1" parent="1">
          <mxGeometry x="280" y="320" width="60" height="60" as="geometry" />
        </mxCell>
        <mxCell id="Dm5T4hRd_MwPpTTTJA_t-9" value="&lt;b&gt;&lt;font style=&quot;font-size: 15px;&quot;&gt;Clientes&lt;/font&gt;&lt;/b&gt;" style="rounded=0;whiteSpace=wrap;html=1;" vertex="1" parent="1">
          <mxGeometry x="180" y="430" width="170" height="60" as="geometry" />
        </mxCell>
        <mxCell id="Dm5T4hRd_MwPpTTTJA_t-10" value="" style="endArrow=none;html=1;rounded=0;" edge="1" parent="1">
          <mxGeometry width="50" height="50" relative="1" as="geometry">
            <mxPoint x="219.5" y="430" as="sourcePoint" />
            <mxPoint x="219.5" y="380" as="targetPoint" />
          </mxGeometry>
        </mxCell>
        <mxCell id="Dm5T4hRd_MwPpTTTJA_t-11" value="" style="endArrow=none;html=1;rounded=0;" edge="1" parent="1">
          <mxGeometry width="50" height="50" relative="1" as="geometry">
            <mxPoint x="309.5" y="430" as="sourcePoint" />
            <mxPoint x="309.5" y="380" as="targetPoint" />
          </mxGeometry>
        </mxCell>
        <mxCell id="Dm5T4hRd_MwPpTTTJA_t-12" value="" style="endArrow=none;html=1;rounded=0;" edge="1" parent="1">
          <mxGeometry width="50" height="50" relative="1" as="geometry">
            <mxPoint x="100" y="459.5" as="sourcePoint" />
            <mxPoint x="180" y="459.5" as="targetPoint" />
          </mxGeometry>
        </mxCell>
        <mxCell id="Dm5T4hRd_MwPpTTTJA_t-13" value="P/C" style="rhombus;whiteSpace=wrap;html=1;" vertex="1" parent="1">
          <mxGeometry x="40" y="430" width="60" height="60" as="geometry" />
        </mxCell>
        <mxCell id="Dm5T4hRd_MwPpTTTJA_t-14" value="&lt;font style=&quot;font-size: 15px;&quot;&gt;&lt;b&gt;Pedidos&lt;/b&gt;&lt;/font&gt;" style="rounded=0;whiteSpace=wrap;html=1;" vertex="1" parent="1">
          <mxGeometry x="-160" y="430" width="120" height="60" as="geometry" />
        </mxCell>
        <mxCell id="Dm5T4hRd_MwPpTTTJA_t-15" value="" style="endArrow=none;html=1;rounded=0;" edge="1" parent="1">
          <mxGeometry width="50" height="50" relative="1" as="geometry">
            <mxPoint x="-40" y="459.5" as="sourcePoint" />
            <mxPoint x="40" y="459.5" as="targetPoint" />
          </mxGeometry>
        </mxCell>
        <mxCell id="Dm5T4hRd_MwPpTTTJA_t-16" value="" style="endArrow=none;html=1;rounded=0;" edge="1" parent="1">
          <mxGeometry width="50" height="50" relative="1" as="geometry">
            <mxPoint x="-240" y="460" as="sourcePoint" />
            <mxPoint x="-160" y="460" as="targetPoint" />
          </mxGeometry>
        </mxCell>
        <mxCell id="Dm5T4hRd_MwPpTTTJA_t-17" value="PR/OP" style="rhombus;whiteSpace=wrap;html=1;" vertex="1" parent="1">
          <mxGeometry x="-470" y="640" width="60" height="60" as="geometry" />
        </mxCell>
        <mxCell id="Dm5T4hRd_MwPpTTTJA_t-18" value="" style="endArrow=none;html=1;rounded=0;" edge="1" parent="1">
          <mxGeometry width="50" height="50" relative="1" as="geometry">
            <mxPoint x="-380" y="459.5" as="sourcePoint" />
            <mxPoint x="-300" y="459.5" as="targetPoint" />
          </mxGeometry>
        </mxCell>
        <mxCell id="Dm5T4hRd_MwPpTTTJA_t-20" value="&lt;b&gt;&lt;font style=&quot;font-size: 15px;&quot;&gt;Producción&lt;/font&gt;&lt;/b&gt;" style="rounded=0;whiteSpace=wrap;html=1;" vertex="1" parent="1">
          <mxGeometry x="-500" y="430" width="120" height="60" as="geometry" />
        </mxCell>
        <mxCell id="Dm5T4hRd_MwPpTTTJA_t-21" value="" style="endArrow=none;html=1;rounded=0;" edge="1" parent="1">
          <mxGeometry width="50" height="50" relative="1" as="geometry">
            <mxPoint x="-580" y="459.5" as="sourcePoint" />
            <mxPoint x="-500" y="459.5" as="targetPoint" />
          </mxGeometry>
        </mxCell>
        <mxCell id="Dm5T4hRd_MwPpTTTJA_t-22" value="MP/PR" style="rhombus;whiteSpace=wrap;html=1;" vertex="1" parent="1">
          <mxGeometry x="-640" y="430" width="60" height="60" as="geometry" />
        </mxCell>
        <mxCell id="Dm5T4hRd_MwPpTTTJA_t-23" value="&lt;font style=&quot;font-size: 15px;&quot;&gt;&lt;b&gt;Materia Prima&lt;br&gt;&lt;/b&gt;&lt;/font&gt;" style="rounded=0;whiteSpace=wrap;html=1;" vertex="1" parent="1">
          <mxGeometry x="-840" y="430" width="120" height="60" as="geometry" />
        </mxCell>
        <mxCell id="Dm5T4hRd_MwPpTTTJA_t-24" value="" style="endArrow=none;html=1;rounded=0;" edge="1" parent="1">
          <mxGeometry width="50" height="50" relative="1" as="geometry">
            <mxPoint x="-720" y="459.5" as="sourcePoint" />
            <mxPoint x="-640" y="459.5" as="targetPoint" />
          </mxGeometry>
        </mxCell>
        <mxCell id="Dm5T4hRd_MwPpTTTJA_t-25" value="" style="endArrow=none;html=1;rounded=0;" edge="1" parent="1">
          <mxGeometry width="50" height="50" relative="1" as="geometry">
            <mxPoint x="-440" y="640" as="sourcePoint" />
            <mxPoint x="-440.5" y="490" as="targetPoint" />
          </mxGeometry>
        </mxCell>
        <mxCell id="Dm5T4hRd_MwPpTTTJA_t-26" value="PR/P" style="rhombus;whiteSpace=wrap;html=1;" vertex="1" parent="1">
          <mxGeometry x="-300" y="430" width="60" height="60" as="geometry" />
        </mxCell>
        <mxCell id="Dm5T4hRd_MwPpTTTJA_t-27" value="" style="endArrow=none;html=1;rounded=0;" edge="1" parent="1" target="Dm5T4hRd_MwPpTTTJA_t-28">
          <mxGeometry width="50" height="50" relative="1" as="geometry">
            <mxPoint x="-410" y="669.5" as="sourcePoint" />
            <mxPoint x="-330" y="669.5" as="targetPoint" />
          </mxGeometry>
        </mxCell>
        <mxCell id="Dm5T4hRd_MwPpTTTJA_t-28" value="&lt;font style=&quot;font-size: 15px;&quot;&gt;&lt;b&gt;Orden de producción&lt;br&gt;&lt;/b&gt;&lt;/font&gt;" style="rounded=0;whiteSpace=wrap;html=1;" vertex="1" parent="1">
          <mxGeometry x="-160" y="640" width="120" height="60" as="geometry" />
        </mxCell>
        <mxCell id="Dm5T4hRd_MwPpTTTJA_t-29" value="" style="endArrow=none;html=1;rounded=0;" edge="1" parent="1" source="Dm5T4hRd_MwPpTTTJA_t-30">
          <mxGeometry width="50" height="50" relative="1" as="geometry">
            <mxPoint x="-100" y="640" as="sourcePoint" />
            <mxPoint x="-100.5" y="490" as="targetPoint" />
          </mxGeometry>
        </mxCell>
        <mxCell id="Dm5T4hRd_MwPpTTTJA_t-31" value="" style="endArrow=none;html=1;rounded=0;" edge="1" parent="1" target="Dm5T4hRd_MwPpTTTJA_t-30">
          <mxGeometry width="50" height="50" relative="1" as="geometry">
            <mxPoint x="-100" y="640" as="sourcePoint" />
            <mxPoint x="-100.5" y="490" as="targetPoint" />
          </mxGeometry>
        </mxCell>
        <mxCell id="Dm5T4hRd_MwPpTTTJA_t-30" value="P/OP" style="rhombus;whiteSpace=wrap;html=1;" vertex="1" parent="1">
          <mxGeometry x="-130" y="540" width="60" height="60" as="geometry" />
        </mxCell>
        <mxCell id="Dm5T4hRd_MwPpTTTJA_t-32" value="" style="endArrow=none;html=1;rounded=0;" edge="1" parent="1">
          <mxGeometry width="50" height="50" relative="1" as="geometry">
            <mxPoint x="-70" y="569.5" as="sourcePoint" />
            <mxPoint x="180" y="570" as="targetPoint" />
          </mxGeometry>
        </mxCell>
        <mxCell id="Dm5T4hRd_MwPpTTTJA_t-33" value="&lt;b&gt;&lt;font style=&quot;font-size: 15px;&quot;&gt;Factura&lt;/font&gt;&lt;/b&gt;" style="rounded=0;whiteSpace=wrap;html=1;" vertex="1" parent="1">
          <mxGeometry x="180" y="548.75" width="120" height="42.5" as="geometry" />
        </mxCell>
        <mxCell id="Dm5T4hRd_MwPpTTTJA_t-35" value="" style="edgeStyle=elbowEdgeStyle;elbow=horizontal;endArrow=classic;html=1;curved=0;rounded=0;endSize=8;startSize=8;" edge="1" parent="1">
          <mxGeometry width="50" height="50" relative="1" as="geometry">
            <mxPoint x="-40" y="680" as="sourcePoint" />
            <mxPoint x="10" y="630" as="targetPoint" />
          </mxGeometry>
        </mxCell>
        <mxCell id="Dm5T4hRd_MwPpTTTJA_t-36" value="P/R" style="rhombus;whiteSpace=wrap;html=1;" vertex="1" parent="1">
          <mxGeometry x="10" y="600" width="60" height="60" as="geometry" />
        </mxCell>
        <mxCell id="Dm5T4hRd_MwPpTTTJA_t-37" value="" style="endArrow=none;html=1;rounded=0;" edge="1" parent="1">
          <mxGeometry width="50" height="50" relative="1" as="geometry">
            <mxPoint x="70" y="629.66" as="sourcePoint" />
            <mxPoint x="150" y="629.66" as="targetPoint" />
          </mxGeometry>
        </mxCell>
        <mxCell id="Dm5T4hRd_MwPpTTTJA_t-38" value="&lt;b&gt;&lt;font style=&quot;font-size: 15px;&quot;&gt;Remito&lt;/font&gt;&lt;/b&gt;" style="rounded=0;whiteSpace=wrap;html=1;" vertex="1" parent="1">
          <mxGeometry x="150" y="610" width="120" height="40" as="geometry" />
        </mxCell>
        <mxCell id="Dm5T4hRd_MwPpTTTJA_t-39" value="" style="endArrow=none;html=1;rounded=0;" edge="1" parent="1">
          <mxGeometry width="50" height="50" relative="1" as="geometry">
            <mxPoint x="270" y="629.66" as="sourcePoint" />
            <mxPoint x="350" y="629.66" as="targetPoint" />
          </mxGeometry>
        </mxCell>
        <mxCell id="Dm5T4hRd_MwPpTTTJA_t-40" value="R/T" style="rhombus;whiteSpace=wrap;html=1;" vertex="1" parent="1">
          <mxGeometry x="350" y="600" width="60" height="60" as="geometry" />
        </mxCell>
        <mxCell id="Dm5T4hRd_MwPpTTTJA_t-41" value="" style="endArrow=none;html=1;rounded=0;" edge="1" parent="1">
          <mxGeometry width="50" height="50" relative="1" as="geometry">
            <mxPoint x="410" y="629.66" as="sourcePoint" />
            <mxPoint x="490" y="629.66" as="targetPoint" />
          </mxGeometry>
        </mxCell>
        <mxCell id="Dm5T4hRd_MwPpTTTJA_t-42" value="&lt;b&gt;&lt;font style=&quot;font-size: 15px;&quot;&gt;Transporte&lt;/font&gt;&lt;/b&gt;" style="rounded=0;whiteSpace=wrap;html=1;" vertex="1" parent="1">
          <mxGeometry x="490" y="610" width="120" height="40" as="geometry" />
        </mxCell>
        <mxCell id="Dm5T4hRd_MwPpTTTJA_t-47" value="" style="endArrow=none;html=1;rounded=0;" edge="1" parent="1">
          <mxGeometry width="50" height="50" relative="1" as="geometry">
            <mxPoint x="-100" y="790" as="sourcePoint" />
            <mxPoint x="560" y="790" as="targetPoint" />
          </mxGeometry>
        </mxCell>
        <mxCell id="Dm5T4hRd_MwPpTTTJA_t-48" value="" style="endArrow=none;html=1;rounded=0;entryX=0.5;entryY=1;entryDx=0;entryDy=0;" edge="1" parent="1" target="Dm5T4hRd_MwPpTTTJA_t-28">
          <mxGeometry width="50" height="50" relative="1" as="geometry">
            <mxPoint x="-100.33999999999997" y="790" as="sourcePoint" />
            <mxPoint x="-100.33999999999997" y="730" as="targetPoint" />
          </mxGeometry>
        </mxCell>
        <mxCell id="Dm5T4hRd_MwPpTTTJA_t-49" value="" style="endArrow=none;html=1;rounded=0;" edge="1" parent="1">
          <mxGeometry width="50" height="50" relative="1" as="geometry">
            <mxPoint x="560" y="790" as="sourcePoint" />
            <mxPoint x="560" y="650" as="targetPoint" />
          </mxGeometry>
        </mxCell>
      </root>
    </mxGraphModel>
  </diagram>
</mxfile>
